<svg id="Capa_1" enable-background="new 0 0 512 512" height="512" viewBox="0 0 512 512" width="512" xmlns="http://www.w3.org/2000/svg"><g><g><g><path d="m461.78 438.649-45.181-124.133-25.425 9.254 45.181 124.133c1.473 4.048-.025 8.578-3.622 10.949l-25.243 16.64c-3.597 2.371-5.095 6.901-3.622 10.949 1.757 4.828 7.095 7.317 11.923 5.56l90.085-32.788c4.828-1.757 7.317-7.095 5.56-11.923-1.473-4.048-5.533-6.555-9.812-6.059l-30.033 3.479c-4.278.494-8.338-2.013-9.811-6.061z" fill="#dff6fd"/></g><path d="m363.219 205.455 29.055-70.35-26.245-56.894-88.01 32.033 16.466 60.453z" fill="#dff6fd"/><path d="m392.274 135.105-26.245-56.894-31.293 11.39 40.274 87.305z" fill="#c8effe"/><g><path d="m405.788 363.923c4.409-.922 8.771-2.152 13.047-3.708s8.408-3.418 12.378-5.546l-14.614-40.153-25.425 9.254z" fill="#c8effe"/></g><g><path d="m326.106 286.792c9.569 35.133 47.123 54.584 81.339 42.13 34.217-12.454 50.482-51.493 35.229-84.557l-50.401-109.26-97.789 35.592z" fill="#ffe177"/></g><g><path d="m442.675 244.365-50.401-109.26-31.293 11.39 50.401 109.26c12.832 27.817 3.352 59.859-20.354 76.745 5.473-.434 10.987-1.601 16.417-3.577 34.217-12.455 50.482-51.494 35.23-84.558z" fill="#ffd15b"/></g></g><g><g><path d="m75.646 447.903 45.181-124.133-25.425-9.254-45.182 124.133c-1.473 4.048-5.533 6.555-9.812 6.059l-30.033-3.479c-4.279-.496-8.339 2.011-9.812 6.059-1.757 4.828.732 10.166 5.56 11.923l90.085 32.789c4.828 1.757 10.166-.732 11.923-5.56 1.473-4.048-.025-8.578-3.622-10.949l-25.243-16.64c-3.595-2.37-5.094-6.9-3.62-10.948z" fill="#dff6fd"/></g><g><path d="m119.726 135.105 29.055 52.243 68.734-16.651 16.466-60.453-88.01-32.033z" fill="#dff6fd"/></g><g fill="#c8effe"><path d="m217.515 170.697 16.466-60.453-31.292-11.389-21.998 80.763z"/><path d="m89.842 321.119c-.055-.004-.109-.005-.164-.009.138.098.281.191.42.289z"/></g><g><path d="m80.787 354.669c3.97 2.128 8.102 3.989 12.378 5.546s8.638 2.786 13.047 3.708l14.614-40.153-25.425-9.254z" fill="#c8effe"/></g><g><path d="m69.325 244.365c-15.252 33.064 1.012 72.103 35.229 84.557 34.217 12.454 71.77-6.997 81.339-42.13l31.621-116.095-97.789-35.592z" fill="#ffe177"/></g><g><path d="m185.894 286.792 31.621-116.095-31.293-11.39-31.621 116.095c-8.051 29.557-35.909 48.009-64.923 45.707 4.472 3.185 9.445 5.836 14.876 7.812 34.217 12.455 71.771-6.996 81.34-42.129z" fill="#ffd15b"/></g></g><g><path d="m256 59.412c-4.142 0-7.5-3.357-7.5-7.5v-24.975c0-4.143 3.358-7.5 7.5-7.5s7.5 3.357 7.5 7.5v24.976c0 4.142-3.358 7.499-7.5 7.499z" fill="#ffd15b"/></g><g><path d="m287.22 69.819c-1.919 0-3.839-.732-5.303-2.196-2.929-2.929-2.929-7.678 0-10.606l17.66-17.661c2.929-2.93 7.678-2.929 10.606-.001 2.929 2.929 2.929 7.678 0 10.606l-17.66 17.661c-1.464 1.465-3.384 2.197-5.303 2.197z" fill="#ffd15b"/></g><g><path d="m224.78 69.819c-1.919 0-3.839-.732-5.303-2.197l-17.66-17.661c-2.929-2.929-2.929-7.678 0-10.606 2.929-2.929 7.678-2.928 10.606.001l17.66 17.661c2.929 2.929 2.929 7.678 0 10.606-1.464 1.464-3.384 2.196-5.303 2.196z" fill="#ffd15b"/></g><g fill="#ffd15b"><path d="m266.407 179.848h-2.907v-9.15c0-4.143-3.358-7.5-7.5-7.5s-7.5 3.357-7.5 7.5v9.15h-2.907c-4.142 0-7.5 3.357-7.5 7.5s3.358 7.5 7.5 7.5h2.907v9.15c0 4.143 3.358 7.5 7.5 7.5s7.5-3.357 7.5-7.5v-9.15h2.907c4.142 0 7.5-3.357 7.5-7.5s-3.358-7.5-7.5-7.5z"/><path d="m421.6 50.94h-2.906v-9.15c0-4.143-3.358-7.5-7.5-7.5s-7.5 3.357-7.5 7.5v9.15h-2.907c-4.142 0-7.5 3.357-7.5 7.5s3.358 7.5 7.5 7.5h2.907v9.15c0 4.143 3.358 7.5 7.5 7.5s7.5-3.357 7.5-7.5v-9.15h2.906c4.142 0 7.5-3.357 7.5-7.5s-3.358-7.5-7.5-7.5z"/><path d="m111.214 50.94h-2.907v-9.15c0-4.143-3.358-7.5-7.5-7.5s-7.5 3.357-7.5 7.5v9.15h-2.906c-4.142 0-7.5 3.357-7.5 7.5s3.358 7.5 7.5 7.5h2.906v9.15c0 4.143 3.358 7.5 7.5 7.5s7.5-3.357 7.5-7.5v-9.15h2.907c4.142 0 7.5-3.357 7.5-7.5s-3.358-7.5-7.5-7.5z"/></g></g></svg>