<svg id="Capa_1" enable-background="new 0 0 512 512" height="512" viewBox="0 0 512 512" width="512" xmlns="http://www.w3.org/2000/svg"><g><path d="m362.187 154.87c-3.601 0-6.304 3.284-5.606 6.817 1.07 5.413 2.671 13.646 4.433 23.213 4.725 25.661 20.921 60.92 20.921 77.1l-10.302 8.819v36.99c0 3.155 2.558 5.713 5.714 5.713l35.182 10.302 35.178-10.302c3.155 0 5.715-2.558 5.715-5.713v-36.99l-10.302-8.819c0-16.181 16.197-51.439 20.922-77.1 1.762-9.567 3.361-17.8 4.431-23.213.698-3.532-2.005-6.817-5.606-6.817z" fill="#d8ecfe"/><path d="m462.867 154.87h-27.815c3.601 0 6.304 3.284 5.606 6.817-3.941 19.933-15.052 78.102-15.052 100.315v45.808c0 3.155-2.558 5.713-5.714 5.713h27.815c3.156 0 5.715-2.558 5.715-5.713v-36.99l-10.302-8.82c0-16.181 16.197-51.439 20.922-77.1 1.762-9.567 3.361-17.8 4.431-23.213.698-3.533-2.006-6.817-5.606-6.817z" fill="#b3dafe"/><path d="m464.042 184.9c-4.719 25.654-10.62 60.919-10.62 77.1v8.819c-26.579 8.639-55.21 8.639-81.789 0v-8.819c0-16.181-5.899-51.447-10.619-77.1z" fill="#fee97d"/><path d="m453.422 270.819v-8.819c0-16.181 5.901-51.446 10.62-77.1h-27.814c-4.726 25.662-10.622 60.919-10.622 77.102v14.623c9.403-.934 18.729-2.852 27.816-5.806z" fill="#fed402"/><path d="m205.66 154.87c-3.601 0-6.304 3.284-5.606 6.817 1.07 5.413 2.671 13.646 4.433 23.213 4.725 25.661 21.951 60.92 21.951 77.101l-11.332 8.819v36.99c0 3.155 2.558 5.713 5.714 5.713l35.18 10.302 35.18-10.302c3.155 0 5.715-2.558 5.715-5.713v-36.99l-10.302-8.82c0-16.181 16.197-51.439 20.922-77.1 1.762-9.567 3.361-17.8 4.431-23.213.698-3.532-2.005-6.817-5.606-6.817z" fill="#d8ecfe"/><path d="m306.34 154.87h-27.815c3.601 0 6.304 3.284 5.606 6.817-3.941 19.933-15.052 78.102-15.052 100.315v45.808c0 3.155-2.558 5.713-5.714 5.713h27.815c3.156 0 5.715-2.558 5.715-5.713v-36.99l-10.302-8.82c0-16.181 16.197-51.439 20.922-77.1 1.762-9.567 3.361-17.8 4.431-23.213.698-3.533-2.005-6.817-5.606-6.817z" fill="#b3dafe"/><path d="m307.515 184.9c-4.719 25.654-10.62 60.92-10.62 77.1v8.819c-26.579 8.639-55.21 8.639-81.789 0v-8.819c0-16.181-5.899-51.447-10.619-77.101h103.028z" fill="#62dbfb"/><path d="m296.895 270.819v-8.819c0-16.181 5.901-51.446 10.62-77.1h-27.814c-4.726 25.662-10.622 60.919-10.622 77.102v14.623c9.403-.934 18.729-2.852 27.816-5.806z" fill="#01c0fa"/><path d="m49.133 154.87c-3.601 0-6.304 3.284-5.606 6.817 1.07 5.413 2.671 13.646 4.433 23.213 4.725 25.661 20.921 60.92 20.921 77.1l-10.302 8.819v36.99c0 3.155 2.558 5.713 5.714 5.713l35.18 10.302 35.18-10.302c3.155 0 5.715-2.558 5.715-5.713v-36.99l-10.302-8.819c0-16.181 16.197-51.439 20.922-77.1 1.762-9.567 3.361-17.8 4.431-23.213.698-3.532-2.005-6.817-5.606-6.817z" fill="#d8ecfe"/><path d="m149.813 154.87h-27.815c3.601 0 6.304 3.284 5.606 6.817-3.941 19.933-15.052 78.102-15.052 100.315v45.808c0 3.155-2.558 5.713-5.714 5.713h27.815c3.156 0 5.715-2.558 5.715-5.713v-36.99l-10.302-8.82c0-16.181 16.197-51.439 20.922-77.1 1.762-9.567 3.361-17.8 4.431-23.213.698-3.533-2.005-6.817-5.606-6.817z" fill="#b3dafe"/><path d="m150.988 184.9c-4.719 25.654-10.62 60.919-10.62 77.1v8.819c-26.579 8.639-55.21 8.639-81.789 0v-8.819c0-16.181-5.899-51.447-10.619-77.1z" fill="#fe7d43"/><path d="m140.368 270.819v-8.819c0-16.181 5.901-51.446 10.62-77.1h-27.814c-4.726 25.662-10.622 60.919-10.622 77.102v14.623c9.404-.934 18.729-2.852 27.816-5.806z" fill="#fd5426"/><path d="m.27 320.356 11.075 33.224c.707 2.12 2.69 3.55 4.925 3.55h479.46c2.234 0 4.218-1.43 4.925-3.55l11.075-33.224c1.12-3.362-1.382-6.833-4.925-6.833h-501.61c-3.543 0-6.045 3.472-4.925 6.833z" fill="#3692bc"/><path d="m506.805 313.523h-30.905c3.543 0 6.045 3.471 4.925 6.833l-11.075 33.224c-.707 2.12-2.69 3.549-4.925 3.549h30.905c2.235 0 4.218-1.43 4.925-3.55l11.075-33.224c1.12-3.361-1.382-6.832-4.925-6.832z" fill="#0681af"/></g></svg>