<svg height="511pt" viewBox="-120 0 511 511.998" width="511pt" xmlns="http://www.w3.org/2000/svg"><path d="m271.164062 459.863281c.097657-.246093.183594-.503906.253907-.765625.019531-.070312.039062-.144531.054687-.214844.054688-.226562.101563-.457031.132813-.691406.011719-.074218.027343-.144531.035156-.214844.03125-.285156.054687-.578124.054687-.875v-371.292968c0-.089844-.011718-.183594-.015624-.273438-.003907-.109375-.007813-.214844-.015626-.324218-.015624-.191407-.039062-.378907-.070312-.5625-.011719-.082032-.019531-.164063-.035156-.246094-.058594-.300782-.128906-.597656-.222656-.886719-12.597657-40.921875-38.113282-57.578125-39.191407-58.265625-1.210937-.769531-2.613281-1.179688-4.042969-1.179688h-184.007812c-1.433594 0-2.835938.40625-4.042969 1.179688-1.082031.6875-26.597656 17.34375-39.191406 58.265625-.09375.289063-.167969.585937-.222656.886719-.015625.082031-.027344.164062-.039063.246094-.027344.183593-.054687.371093-.070312.5625-.007813.105468-.011719.214843-.015625.324218 0 .089844-.011719.183594-.011719.273438v371.289062c0 .300782.019531.589844.054688.878906.007812.070313.019531.140626.03125.210938.035156.234375.078124.464844.132812.691406.019531.074219.035156.148438.058594.21875.070312.261719.152344.515625.253906.765625.011719.027344.019531.058594.03125.085938.117188.285156.253906.5625.40625.832031.007812.015625.011719.03125.019531.042969l14.230469 24.921875c9.246094 16.191406 26.574219 26.25 45.21875 26.25h150.320312c18.644532 0 35.96875-10.058594 45.214844-26.25l14.234375-24.921875c.007813-.015625.011719-.027344.019531-.042969.152344-.269531.289063-.546875.40625-.832031.011719-.027344.019532-.058594.03125-.085938zm0 0" fill="#ffdb56"/><path d="m271.679688 85.535156c-.003907-.109375-.007813-.214844-.015626-.324218-.011718-.191407-.039062-.378907-.066406-.5625-.015625-.082032-.023437-.164063-.039062-.246094-.054688-.300782-.128906-.597656-.222656-.886719-12.597657-40.921875-38.109376-57.578125-39.191407-58.265625-1.207031-.769531-2.609375-1.179688-4.042969-1.179688h-34.449218c1.433594 0 2.835937.40625 4.042968 1.179688 1.078126.6875 26.59375 17.34375 39.191407 58.265625.09375.289063.167969.585937.222656.886719.015625.082031.023437.164062.039063.246094.027343.183593.050781.371093.066406.5625.011718.105468.015625.214843.019531.324218 0 .089844.011719.183594.011719.273438v371.289062c0 .300782-.019532.589844-.054688.878906-.007812.070313-.023437.140626-.03125.210938-.035156.234375-.078125.464844-.132812.691406-.019532.074219-.039063.148438-.058594.21875-.070312.261719-.152344.515625-.253906.765625-.011719.027344-.019532.058594-.03125.085938-.117188.285156-.253906.5625-.40625.832031-.007813.015625-.011719.03125-.019532.042969l-14.234374 24.921875c-9.246094 16.191406-26.570313 26.25-45.214844 26.25h34.449218c18.644532 0 35.96875-10.058594 45.214844-26.25l14.234375-24.921875c.007813-.015625.011719-.027344.019531-.042969.152344-.269531.289063-.546875.40625-.832031.011719-.027344.019532-.058594.03125-.085938.097657-.25.183594-.503906.253907-.765625.019531-.070312.039062-.144531.058593-.21875.054688-.226562.097657-.457031.132813-.691406.007813-.070312.023437-.140625.03125-.210938.035156-.289062.054687-.578124.054687-.878906v-371.289062c0-.089844-.011718-.183594-.015624-.273438zm0 0" fill="#f6c134"/><path d="m271.695312 85.808594h-271.195312v371.289062h271.195312zm0 0" fill="#3aa5fb"/><path d="m136.097656 184.859375c-42.40625 0-76.902344 34.496094-76.902344 76.898437 0 42.402344 34.5 76.902344 76.902344 76.902344s76.898438-34.5 76.898438-76.902344c0-42.402343-34.496094-76.898437-76.898438-76.898437zm0 0" fill="#e0e0e2"/><path d="m136.097656 184.859375c-5.921875 0-11.683594.695313-17.226562 1.96875 34.136718 7.84375 59.679687 38.449219 59.679687 74.929687 0 36.484376-25.542969 67.089844-59.679687 74.933594 5.542968 1.273438 11.304687 1.96875 17.226562 1.96875 42.402344 0 76.898438-34.496094 76.898438-76.898437 0-42.40625-34.496094-76.902344-76.898438-76.902344zm0 0" fill="#c7c6cc"/><path d="m237.246094 85.808594v371.289062h34.449218v-371.289062zm0 0" fill="#0088fa"/><path d="m229.429688 0h-186.667969c-10.667969 0-19.347657 8.679688-19.347657 19.351562v.398438c0 10.671875 8.679688 19.351562 19.347657 19.351562h186.667969c10.671874 0 19.351562-8.679687 19.351562-19.351562v-.398438c0-10.671874-8.679688-19.351562-19.351562-19.351562zm0 0" fill="#e0e0e2"/><path d="m229.429688 0h-34.449219c10.671875 0 19.351562 8.679688 19.351562 19.351562v.398438c0 10.671875-8.679687 19.351562-19.351562 19.351562h34.449219c10.671874 0 19.351562-8.679687 19.351562-19.351562v-.398438c0-10.671874-8.679688-19.351562-19.351562-19.351562zm0 0" fill="#c7c6cc"/></svg>