<svg id="Capa_1" enable-background="new 0 0 512 512" height="512" viewBox="0 0 512 512" width="512" xmlns="http://www.w3.org/2000/svg"><g><path d="m322.751 356.33 34.892 97.67-34.892 58h-74.44c-14.68 0-27.03-11-28.72-25.58l-14.53-91.63-5.45-38.46z" fill="#edf5ff"/><path d="m446.961 356.33-5.39 38.46-14.53 91.63c-1.69 14.58-14.04 25.58-28.72 25.58h-75.57v-155.67z" fill="#d5e8fe"/><path d="m168.111 134.04h154.64l42.392 41.609-42.392 262.221c-44.75-.14-85.87-16.3-117.69-43.08l-24.53-173.11z" fill="#edf5ff"/><path d="m477.331 139.73-11.49 81.95-24.27 173.11c-31.95 26.89-73.15 43.08-118.25 43.08h-.57v-303.83h149.63c3.067 0 5.373 2.71 4.95 5.69z" fill="#d5e8fe"/><path d="m322.751 221.68 34.892 101.34-34.892 114.85c-44.75-.14-85.87-16.3-117.69-43.08l-24.53-173.11z" fill="#fed843"/><path d="m465.841 221.68-24.27 173.11c-31.95 26.89-73.15 43.08-118.25 43.08h-.57v-216.19z" fill="#fabe2c"/><path d="m63.819 50.335c-18.505 23.158-28.214 51.081-29.126 79.245l11.646 14.333-9.27 15.662c4.907 25.371 17.154 49.582 36.755 69.183 5.843 5.843 15.361 5.853 21.22-.007l69.106-69.148 15.019-15.033-101.569-101.568z" fill="#fed843"/><path d="m194.153 2.449-15.349 11.238-14.647-13.613c-28.136.912-56.01 10.6-79.125 29.048l-7.432 13.88 101.569 101.569 14.984-14.998 69.183-69.226c5.853-5.853 5.86-15.368-.014-21.213-19.608-19.565-43.82-31.798-69.169-36.685z" fill="#fabe2c"/><path d="m73.782 39.184 105.387 105.387-15.019 15.033v-.028h-127.081c-1.916-9.893-2.708-19.962-2.376-29.996l108.279-.007-79.153-79.238c3.068-3.861 6.392-7.58 9.963-11.151z" fill="#fabe2c"/><path d="m194.153 2.449v127.124l-14.984 14.998-105.387-105.387.042-.042c3.585-3.585 7.325-6.93 11.208-10.02l79.125 79.21v-108.258c10.034-.333 20.103.459 29.996 2.375z" fill="#ff9100"/></g></svg>