<svg id="Layer_1" enable-background="new 0 0 3000 3000" height="512" viewBox="0 0 3000 3000" width="512" xmlns="http://www.w3.org/2000/svg"><path d="m2053 1236.6-1 169.4 1 143.7v30.9l-2 879.8v383.6c-1 28.5-10.9 54.8-27.4 75.5-22.2 27.8-56.4 45.7-94.7 45.6h-154.6l-484.2 2h-36.7c-1.8 0-3.5 0-5.2-.1-33.1-1.3-62.8-15.9-83.9-38.5-20.2-21.6-32.6-50.7-33.2-82.6l-1-385.4-2-879.8 1-30.9-1-143.7-.5-169.6c-.1-40.7 6.4-80.5 18.9-118.1 7.1-21.6 16.3-42.4 27.2-62.2 29.8-54.1 73-100.7 126.9-134.8 67.7-42.8 108.1-118 106.5-198.1l1-32.3v-267h354.1l5.8 287.3.4 17.9c1.6 76.9 41.6 147.9 106.6 189.1l5.1 3.2c73.7 46.6 127.5 116.7 154.2 197.2 12.4 37.4 18.9 77.2 18.7 117.9z" fill="#604443"/><path d="m2034.2 1119h-888.1c7.2-22 16.3-42.8 27.2-62.7 29.8-54.2 73.1-100.9 127-135 67.8-42.9 108.3-118.1 106.6-198.4l1-32v-266.9h354.1l5.8 287.3.4 17.9c1.6 76.9 41.6 147.9 106.6 189.1l5.1 3.2c73.8 46.5 127.6 116.7 154.3 197.5z" fill="#406143"/><path d="m2052 1550 1 30.7v880.3h-923l-2-880.3v-30.7z" fill="#f8f0ce"/><path d="m2052 1406 1 143.8v31.2h-925l1-31.2v-143.8z" fill="#a83b3f"/><path d="m2023.6 2919.4c-22.2 27.8-94.7 45.6-94.7 45.6h-154.6l-484.2 2h-41.9s-62.8-15.9-83.9-38.6l229-149.6c116.6-76.2 264.7-82 386-17.3 9.9 5.3 19.7 11 29.2 17.3z" fill="#3d3d3d" opacity=".33"/><path d="m1768 88.7v640.3h-361v-640.3c0-35.7 29-64.7 64.7-64.7h231.6c35.7 0 64.7 29 64.7 64.7z" fill="#ac3942"/><path d="m1799 193.7v97.6c0 17.9-13.6 32.6-31 34.5-1.2.1-2.5.2-3.8.2h-349.3c-2.7 0-5.4-.3-7.9-.9-15.4-3.6-26.9-17.4-26.9-33.8v-97.6c0-16.5 11.5-30.2 26.9-33.8 2.6-.6 5.2-.9 7.9-.9h349.3c1.3 0 2.6.1 3.8.2 17.4 1.9 31 16.6 31 34.5z" fill="#bd4943"/><ellipse cx="1600.5" cy="1972" fill="#a83b3f" rx="320.5" ry="201"/><path d="m2053 1236.4 1 169.7-2 143.7 1 30.9-2 879.8v383.5c-1 28.5-10.9 54.8-27.4 75.5-22.2 27.8-94.7 45.6-94.7 45.6h-154.6s3.2-126.6 4.9-203.5c2-91.1 4.1-193.1 5.9-301.1 4.8-283.2 8.1-606.9 5-879.8-.1-10.4-.2-20.7-.4-30.9-.7-50-1.6-98.1-2.7-143.7-2.9-114.4-7.4-213.4-14.1-287.5-7.4-82.7-33-131.4-46.3-139.5-92-55.8-78.3-249.3-78.5-249.3v-.8l2-304.9 1-98.2v-2.6l-6-163.1 1-1.8v-127.8l6.1-6.6h51.2c35.7 0 64.7 29 64.7 64.7v69.9c17.4 1.9 31 16.7 31 34.6v97.8c0 17.9-13.6 32.7-31 34.6v385.9l.4 17.8c1.6 76.9 41.6 147.8 106.5 188.9l5.1 3.2c73.6 46.5 127.3 116.6 154 196.9 12.4 37.7 19 77.4 18.9 118.1z" fill="#3d3d3d" opacity=".22"/></svg>