<svg id="Layer_1" enable-background="new 0 0 512.031 512.031" height="512" viewBox="0 0 512.031 512.031" width="512" xmlns="http://www.w3.org/2000/svg"><g><path d="m216.727 109.446c-47.163-7.839-94.89 41.755-147.512 16.081l-44.28-41.329 46.045 298.829v54.584c0 11.316 9.174 20.49 20.49 20.49h250.224l30.32-185.087 29.99-161.109-26.462-12.463c-47.808 0-111.652 17.842-158.815 10.004z" fill="#ffa232"/><path d="m216.727 109.446c-1.732-.288-3.465-.489-5.199-.628v349.283h130.165l30.32-185.087 28.399-169.56-43.832-14.241c-47.806 0-92.69 28.071-139.853 20.233z" fill="#ff712f"/><path d="m407.472 53.726-18.535 73.796h-40.034c-47.807 0-95.534 3.939-142.698 11.778-47.163 7.839-125.452-2.358-173.26-2.358l-17.485-83.216z" fill="#fff"/><path d="m211.91 138.382c45.306-7.221 91.111-10.86 136.992-10.86h40.034l18.535-73.796h-195.561z" fill="#fff5f5"/><path d="m416.602 41.245c-2.726-2.008-6.082-2.978-9.468-2.978h-391.309c-3.401 0-6.771.973-9.509 2.991-4.798 3.538-7.056 9.372-6.101 15.039l55.305 328.024v53.29c0 19.854 16.095 35.949 35.949 35.949h250.225c7.574 0 14.031-5.486 15.256-12.96l30.32-185.088c.002-.01.003-.021.005-.031l35.458-219.287c.914-5.644-1.357-11.434-6.131-14.949zm-330.164 387.942v-30.713l249.39-.194-7.267 44.362h-228.668c-7.431 0-13.455-6.024-13.455-13.455zm270.321-158.672-15.865 96.843-256.846.2-50.305-298.372h355.57z" fill="#e0ffff"/><path d="m407.473 38.268h-195.945v30.918h177.785l-32.555 201.329-15.865 96.843-129.365.101v30.918l124.3-.097-7.267 44.362h-117.033v30.918h130.166c7.574 0 14.031-5.486 15.256-12.96l30.32-185.088c.002-.01.003-.021.005-.031l35.458-219.287c.724-4.474-.553-9.038-3.489-12.489-2.937-3.45-7.24-5.437-11.771-5.437z" fill="#c1f8ff"/><g><path d="m463.813 178.415c-5.605-5.668-14.692-5.668-20.297 0l-12.947 13.308-20.739 181.267c-.013.014-.027.027-.041.04l-176.82 17.975-12.933 13.414c-5.605 5.668-5.605 14.858 0 20.526 67.317 68.078 171.913 63.48 239.23-4.598 67.026-67.712 71.997-173.973 4.547-241.932z" fill="#00b100"/><path d="m422.336 386.104c.016-.016.032-.031.047-.047 32.122-32.485 43.254-75.227 34.977-115.642l-124.187 19.612-3.204 3.24z" fill="#ebff86"/><path d="m410.641 211.495-77.467 78.532 124.187-19.612c-5.074-24.778-27.41-38.792-46.72-58.92z" fill="#bee800"/><path d="m327.071 296.2-74.009 75.205c21.034 20.878 35.692 44.06 61.1 49.171z" fill="#ebff86"/><path d="m422.336 386.104-92.365-92.837-2.9 2.933-12.909 124.376c37.772 7.597 77.089-3.065 108.174-34.472z" fill="#bee800"/><g><path d="m336.794 437.057c-.394 0-.787-.002-1.181-.005-37.647-.343-75.06-17.126-102.645-46.046l20.093-19.601c22.418 23.503 52.598 37.14 82.803 37.415 28.695.27 55.19-11.046 76.601-32.698 22.48-22.711 34.454-52.055 33.717-82.631-.722-29.995-13.345-59.115-35.541-81.995l19.928-19.772c27.172 28.007 42.628 63.905 43.523 101.081.924 38.381-13.953 75.063-41.89 103.287-26.15 26.444-59.992 40.965-95.408 40.965z" fill="#fff5f5"/></g></g><g><path d="m251.593 305.45c-7.557 0-14.057-5.693-14.894-13.378-3.604-33.104-17.797-38.153-39.281-45.795-16.944-6.026-38.032-13.527-51.877-37.119-4.193-7.145-1.801-16.336 5.345-20.528 7.143-4.192 16.335-1.801 20.528 5.345 8.316 14.171 21.172 18.743 36.058 24.038 23.796 8.463 53.41 18.997 59.052 70.813.896 8.235-5.053 15.639-13.289 16.535-.551.06-1.1.089-1.642.089z" fill="#ffc750"/></g><path d="m211.528 219.465v32.272c13.551 6.204 22.428 15.147 25.171 40.336.837 7.685 7.337 13.378 14.894 13.378.542 0 1.091-.029 1.642-.089 8.236-.896 14.186-8.3 13.289-16.535-5.326-48.91-32.007-61.038-54.996-69.362z" fill="#ffa232"/></g></svg>