<svg id="Layer_3" height="512" viewBox="0 0 64 64" width="512" xmlns="http://www.w3.org/2000/svg" data-name="Layer 3"><path d="m31 29h2v32h-2z" fill="#aab1b7"/><path d="m32 29h1v32h-1z" fill="#91989d"/><path d="m32 35a7.22 7.22 0 0 1 2.955-3.086l3.145-1.747a7.584 7.584 0 0 0 3.9-6.628 7.535 7.535 0 0 0 -.076-1.072l-2.924-20.467h-14l-2.924 20.467a7.535 7.535 0 0 0 -.076 1.072 7.584 7.584 0 0 0 3.9 6.628l3.145 1.747a7.22 7.22 0 0 1 2.955 3.086z" fill="#cacbcd"/><path d="m24 23.539a7.584 7.584 0 0 0 3.9 6.628l3.145 1.747a7.211 7.211 0 0 1 1.955 1.616 7.211 7.211 0 0 1 1.955-1.616l3.145-1.747a7.584 7.584 0 0 0 3.824-7.7l-2.924-20.467h-12l-2.924 20.467a7.535 7.535 0 0 0 -.076 1.072z" fill="#e4e5e7"/><path d="m41.924 22.467-.781-5.467h-18.286l-.781 5.467a7.584 7.584 0 0 0 3.824 7.7l3.145 1.747a7.22 7.22 0 0 1 2.955 3.086 7.22 7.22 0 0 1 2.955-3.086l3.145-1.747a7.584 7.584 0 0 0 3.824-7.7z" fill="#5c210a"/><path d="m41.924 22.467-.781-5.467h-16.286l-.781 5.467a7.584 7.584 0 0 0 3.824 7.7l3.145 1.747a7.211 7.211 0 0 1 1.955 1.616 7.251 7.251 0 0 1 .864-.853c.019-.017.037-.035.057-.051a7.1 7.1 0 0 1 1.034-.712l3.145-1.747a7.584 7.584 0 0 0 3.824-7.7z" fill="#7c230f"/><path d="m11 34h2v27h-2z" fill="#aab1b7"/><g fill="#91989d"><path d="m12 34h1v27h-1z"/><path d="m12 58-7 4h14z"/><path d="m32 58-7 4h14z"/></g><path d="m47 34h2v27h-2z" fill="#aab1b7"/><path d="m48 34h1v27h-1z" fill="#91989d"/><path d="m48 41a7.511 7.511 0 0 1 4.912-5.3l2.668-.889a7.927 7.927 0 0 0 5.42-7.525 7.905 7.905 0 0 0 -.407-2.506l-4.593-13.78h-16l-4.593 13.78a7.905 7.905 0 0 0 -.407 2.506 7.927 7.927 0 0 0 5.42 7.521l2.668.889a7.511 7.511 0 0 1 4.912 5.304z" fill="#cacbcd"/><path d="m38 27.286a7.928 7.928 0 0 0 5.42 7.521l2.669.889a7.5 7.5 0 0 1 3.411 2.36 7.5 7.5 0 0 1 3.411-2.36l2.669-.889a7.926 7.926 0 0 0 5.013-10.027l-4.593-13.78h-13l-4.593 13.78a7.905 7.905 0 0 0 -.407 2.506z" fill="#e4e5e7"/><path d="m60.333 24h-24.666l-.26.78a7.926 7.926 0 0 0 5.013 10.027l2.669.889a7.512 7.512 0 0 1 4.911 5.304 7.512 7.512 0 0 1 4.911-5.3l2.669-.889a7.926 7.926 0 0 0 5.013-10.031z" fill="#b03a3c"/><path d="m48 58-7 4h14z" fill="#91989d"/><path d="m12 42a7.946 7.946 0 0 1 2.9-3.185l1.247-.779a10.337 10.337 0 0 0 4.853-8.764 10.323 10.323 0 0 0 -.309-2.506l-2.691-10.766h-12l-2.691 10.766a10.323 10.323 0 0 0 -.309 2.506 10.337 10.337 0 0 0 4.857 8.764l1.247.779a7.946 7.946 0 0 1 2.896 3.185z" fill="#cacbcd"/><path d="m5 29.272a10.337 10.337 0 0 0 4.857 8.764l1.247.779a7.93 7.93 0 0 1 1.896 1.685 7.93 7.93 0 0 1 1.9-1.681l1.247-.779a10.332 10.332 0 0 0 4.548-11.27l-2.695-10.77h-10l-2.691 10.766a10.329 10.329 0 0 0 -.309 2.506z" fill="#e4e5e7"/><path d="m7.857 38.036 1.247.779a7.946 7.946 0 0 1 2.896 3.185 7.946 7.946 0 0 1 2.9-3.185l1.247-.779a10.327 10.327 0 0 0 4.153-5.036h-16.6a10.327 10.327 0 0 0 4.157 5.036z" fill="#d8b43e"/><path d="m16.143 38.036a10.327 10.327 0 0 0 4.157-5.036h-14.6a10.327 10.327 0 0 0 4.154 5.036l1.247.779a7.93 7.93 0 0 1 1.899 1.685 7.93 7.93 0 0 1 1.9-1.681z" fill="#f9d655"/><path d="m60.333 24h-21.666l-.26.78a7.926 7.926 0 0 0 5.013 10.027l2.669.889a7.5 7.5 0 0 1 3.411 2.36 7.5 7.5 0 0 1 3.411-2.36l2.669-.889a7.926 7.926 0 0 0 5.013-10.027z" fill="#d14947"/></svg>