<svg id="Capa_1" enable-background="new 0 0 497 497" height="512" viewBox="0 0 497 497" width="512" xmlns="http://www.w3.org/2000/svg"><g><path d="m182.958 482.696 1.624-.696 63.917-17 63.917 17 1.624.696c7.512 3.535 4.993 14.304-3.309 14.304h-124.231c-8.302 0-11.053-10.769-3.542-14.304z" fill="#f5fcff"/><path d="m184.583 482 56.417-23.832v-153.504c0-4.142 3.357-7.5 7.5-7.5s7.5 3.358 7.5 7.5v153.504l56.417 23.832z" fill="#dcf2f6"/><path d="m180.266 108c.66-11.848 1.358-23.677 2.072-35 1.735-27.513 3.568-52.007 5.194-66.343.435-3.84 3.827-6.657 7.691-6.657h98.397c8.234 10.987 8.234 46.236 8.234 110.165l-53.854 7.835z" fill="#fcf5c7"/><path d="m301.778 0c3.864 0 7.256 2.817 7.691 6.657 1.627 14.337 3.459 38.83 5.194 66.343.001.014.001.028.002.042.713 11.31 1.409 23.125 2.069 34.958l-14.88 2.165c-2.571-46.488-5.741-93.227-8.234-110.165z" fill="#f8e883"/><path d="m180.266 108h121.468c7.072 39.994 10.766 100.056 10.766 115 0 28.299-12.009 44.885-35.212 62.716-4.728 3.634-40.35 23.398-40.35 23.398-7.321-5.627-16.123-12.391-20.06-15.416-20.998-16.137-41.378-36.164-41.378-73.698 0-14.944 2.069-63.589 4.766-112z" fill="#f8e883"/><path d="m306.5 220c0-14.944-2.069-63.589-4.766-112h15c2.697 48.411 4.766 97.056 4.766 112 0 37.533-20.378 57.56-41.377 73.697-4.704 3.615-16.357 12.57-24.126 18.541-4.423 3.399-10.574 3.397-14.997-.002-1.266-.973-2.636-2.026-4.062-3.121 9.511-7.31 29.622-22.765 34.35-26.398 23.203-17.832 35.212-34.418 35.212-62.717z" fill="#ffd064"/><g fill="#fcf5c7"><circle cx="234.5" cy="203" r="13"/><circle cx="248.5" cy="278" r="8.5"/><circle cx="255.5" cy="148" r="8.5"/><circle cx="228.5" cy="121" r="8.5"/></g><circle cx="273.5" cy="40" fill="#f5fcff" r="8.5"/><circle cx="227.5" cy="43" fill="#f5fcff" r="13"/><circle cx="264.5" cy="90" fill="#f5fcff" r="13"/></g></svg>